<svg width="36" height="37" fill="none" xmlns="http://www.w3.org/2000/svg"><path d="M15.217.712h0a2.416 2.416 0 00-1.521 1.335 1.44 1.44 0 00-.153.487c-.027.204-.036.499-.047 1.044l-.024 1.17-.001.071-.07.003-.931.035c-.756.028-1.005.067-1.379.205-1.127.418-1.928 1.223-2.358 2.375l-.07-.026.07.026c-.14.378-.152.52-.177 2.768-.007.654-.017 1.249-.027 1.68a33.146 33.146 0 01-.022.653.728.728 0 01-.007.058l-.006.018a.075.075 0 01-.068.043.042.042 0 01-.017-.003.076.076 0 01-.006-.001l-.006-.002-.007-.003-.017-.008a881.1 881.1 0 01-3.545-1.752l-.03-.015C2.903 9.93 1.962 9.46 1.43 9.263c-.267-.098-.42-.124-.535-.113-.114.011-.197.059-.33.135-.48.274-.628.825-.35 1.323.035.06.067.109.157.18.093.072.246.168.52.319.55.3 1.568.813 3.527 1.794l4.077 2.042.042.02v.047l.019 9.26.02 9.246.153.404c.45 1.177 1.297 2.014 2.43 2.404L15.218.712zm0 0c.104-.033.315-.056.764-.068a72.226 72.226 0 012.126-.008l2.598.014.452.222.033-.067-.033.067c.528.26.89.629 1.144 1.17.085.181.129.292.155.49.028.204.037.499.048 1.046l.023 1.17.002.071.07.003.93.036c.696.028 1.024.074 1.326.181 1.132.404 1.943 1.198 2.39 2.346l.18.457.019 7.134.02 7.147v.046l.04.021 4.078 2.042c1.958.98 2.977 1.493 3.526 1.794.275.15.428.247.52.32a.53.53 0 01.157.179c.278.497.13 1.049-.35 1.323-.132.076-.216.123-.33.134-.114.012-.267-.014-.535-.113-.532-.197-1.473-.665-3.369-1.61l-.03-.014a836.672 836.672 0 00-3.275-1.622 30.335 30.335 0 00-.271-.13l-.018-.008-.007-.003-.006-.002a.07.07 0 00-.022-.003.076.076 0 00-.073.056 18.065 18.065 0 00-.016.371c-.005.229-.01.559-.015.965-.01.814-.018 1.937-.024 3.171-.011 2.227-.017 3.348-.04 3.965a4.92 4.92 0 01-.048.614 1.434 1.434 0 01-.087.301c-.445 1.173-1.295 2.013-2.43 2.404l.025.07-.024-.07-.46.159H11.62l-.46-.16-.025.072L15.217.712zm5.197 1.998h0a.325.325 0 00-.173-.078 2.547 2.547 0 00-.361-.035c-.337-.016-.905-.02-1.88-.02-.975 0-1.544.004-1.88.02a2.549 2.549 0 00-.361.035.324.324 0 00-.173.078h0c-.065.064-.094.16-.111.32a8.579 8.579 0 00-.022.79v1.02h5.094V3.819c0-.382-.005-.627-.022-.79-.017-.159-.047-.255-.111-.319zm3.86 4.213l-.023.071.024-.071c-.168-.057-.414-.086-1.273-.1-.863-.016-2.357-.018-5.032-.015h-.86c-2.746.003-4.123.004-4.867.06-.41.031-.638.08-.8.16a1.12 1.12 0 00-.318.255l-.065.066a1.8 1.8 0 00-.312.375c-.08.14-.132.304-.167.542-.069.472-.072 1.257-.072 2.761v2.692l.041.02 7.381 3.68a3150.727 3150.727 0 006.82 3.389 103.732 103.732 0 00.555.272l.032.014.01.005.006.002.006.002.004.001a.074.074 0 00.073-.024.08.08 0 00.013-.02l.005-.015a847.998 847.998 0 00.036-6.339v-.942c0-2.922 0-4.388-.056-5.177-.032-.434-.08-.675-.163-.843a1.124 1.124 0 00-.262-.326l-.07-.067a1.94 1.94 0 00-.665-.428zm1.217 16.537v-.046l-.042-.021-7.38-3.68a3145.656 3145.656 0 00-6.82-3.388 117.845 117.845 0 00-.556-.272l-.031-.015-.01-.004-.006-.002-.006-.002s-.01-.003-.021-.003c-.04 0-.06.03-.063.034a.074.074 0 00-.012.032.165.165 0 00-.003.027v.023a349.424 349.424 0 00-.021 2.437 1508.964 1508.964 0 00-.012 7.544c0 3.666 0 5.503.054 6.473.03.548.079.831.161 1.014a.922.922 0 00.25.314l.086.082.063.064c.102.105.191.196.33.265.165.082.398.13.81.162.755.058 2.15.058 4.928.057h1.62c2.778 0 4.173.001 4.928-.057.412-.031.644-.08.81-.162.138-.069.227-.16.33-.265a6.167 6.167 0 01.108-.109 1.33 1.33 0 00.28-.343c.082-.157.132-.366.165-.716.06-.659.06-1.853.06-4.229V23.46zm-4.313 6.87h.075v-2.262h-6.507v2.262h6.432zm-8.267-3.704a.95.95 0 01.375-.384c.11-.058.2-.093.813-.111.611-.019 1.73-.02 3.886-.022 2.173-.002 3.29-.002 3.9.016.304.009.478.022.591.041.11.018.161.041.224.073a.897.897 0 01.46.579c.019.079.032.186.041.357.019.342.021.925.021 2.024 0 1.1-.002 1.683-.02 2.025a2.15 2.15 0 01-.042.356.897.897 0 01-.46.579.67.67 0 01-.224.073 4.798 4.798 0 01-.59.042c-.608.018-1.723.019-3.886.019-2.164 0-3.278-.001-3.886-.02a4.8 4.8 0 01-.59-.04.67.67 0 01-.224-.074.897.897 0 01-.46-.579 2.15 2.15 0 01-.042-.356c-.018-.342-.02-.926-.02-2.025 0-1.098.002-1.682.02-2.024.01-.171.023-.278.041-.357a.762.762 0 01.072-.192z" fill="url(#paint0_linear_1710_5218)" stroke="#0C0C0C" stroke-width=".15"/><defs><linearGradient id="paint0_linear_1710_5218" x1="0" y1=".558" x2="36.72" y2="37.458" gradientUnits="userSpaceOnUse"><stop stop-color="#0ABD92"/><stop offset="1" stop-color="#009DB8"/></linearGradient></defs></svg>