<svg width="160" height="167" fill="none" xmlns="http://www.w3.org/2000/svg"><path fill-rule="evenodd" clip-rule="evenodd" d="M73.341 55.083c-3.269.552-6.151 2.055-8.492 4.428-1.057 1.071-1.676 1.915-1.676 2.283 0 .56 1.6 2.415 3.082 3.573 2.93 2.287 6.03 3.33 9.899 3.328 3.397 0 6.204-.802 8.762-2.503 1.607-1.069 3.629-3.04 4.084-3.981.233-.482.132-.735-.707-1.772-2.236-2.764-5.74-4.766-9.378-5.355-1.2-.195-4.422-.195-5.574 0zm4.25 2.006c1.377.425 2.553 1.467 3.102 2.747a4.922 4.922 0 01-2.426 6.409 4.933 4.933 0 01-5.623-1.002 4.908 4.908 0 01-.869-5.672c.352-.695 1.234-1.649 1.867-2.02a5.052 5.052 0 013.95-.462zm-7.59 1.595a6.793 6.793 0 00-.078 6.044l.37.779-.396-.164c-.554-.228-1.585-.855-2.29-1.392-.684-.52-2.163-1.992-2.163-2.153 0-.189 1.976-2.058 2.674-2.528.542-.367 2.05-1.206 2.169-1.208.015 0-.113.28-.286.622zm14.05.51c.935.624 2.812 2.372 2.812 2.619 0 .184-1.56 1.692-2.38 2.3-.686.508-2.23 1.413-2.412 1.413-.03 0 .087-.262.26-.582.962-1.776.984-4.3.055-6.148l-.36-.713.499.213c.274.117.96.521 1.525.898zm-8.824-.185c-1.269.453-2.004 1.501-1.986 2.828.015 1.108.56 2.027 1.513 2.553.508.28.698.324 1.4.322.867-.002 1.358-.184 2.035-.754.889-.748 1.17-2.336.616-3.47-.644-1.316-2.217-1.966-3.578-1.48zm1.3 1.91c.619.259.8.97.382 1.501-.536.682-1.729.295-1.729-.56 0-.388.257-.797.592-.943.407-.177.325-.177.755.002zm-17.032 4.03c-4.955 1.654-7.657 3.702-8.104 6.141-.142.778-.157 8.04-.017 9 .138.956.599 1.818 1.414 2.644.897.91 1.748 1.48 3.391 2.273 3.78 1.822 8.5 2.82 16.107 3.408l.839.064.003 1.695c.004 1.768.038 1.916.503 2.164.558.297.643.24 5.738-3.831 2.724-2.177 5.086-4.1 5.25-4.275.377-.404.4-.95.053-1.323-.174-.188-8.653-6.986-10.111-8.107-.073-.056-.315-.102-.537-.102-.304 0-.467.072-.652.287-.234.272-.247.377-.247 1.904v1.617l-.839-.002c-2.248-.006-6.206-.551-9.57-1.318l-1.485-.339-.03-5.779-.03-5.78-.303-.26c-.345-.297-.672-.316-1.373-.082zm31.923-.03c-.548.305-.545.263-.549 6.305l-.004 5.643-1.379.323a67.9 67.9 0 01-2.698.564c-1.067.195-1.367.29-1.564.5-.465.496-.237 1.31.44 1.569.514.196 5.288-.828 7.843-1.683 1.378-.461 3.043-1.287 4.304-2.135l.951-.64v2.333c0 2.146-.018 2.369-.224 2.772-1.046 2.051-5.629 4.098-11.474 5.123-1.592.28-1.862.372-2.037.7a1 1 0 00.222 1.239c.41.345.487.345 2.337.006 5.622-1.03 9.572-2.635 11.671-4.745.863-.867 1.295-1.643 1.454-2.614.133-.815.139-8.23.006-9.038-.198-1.212-1.013-2.408-2.333-3.424-.978-.752-3.425-1.955-5.11-2.511-1.469-.485-1.49-.489-1.856-.286zm-32.14 6.72c0 3.883-.021 4.489-.16 4.489-.26 0-1.773-.63-2.76-1.15-1.87-.983-3.03-2.23-3.03-3.258 0-1.42 1.712-2.882 4.923-4.205.476-.196.902-.359.946-.362.045-.002.081 2.016.081 4.485zm34.478-4.157c3.096 1.225 5.006 2.832 5.006 4.21 0 1.082-1.143 2.3-3.137 3.341-.867.454-2.588 1.203-2.761 1.203-.028 0-.051-2.044-.051-4.544 0-2.498.023-4.543.05-4.543.03 0 .43.15.893.333zM56.303 77.16c3.489 1.716 10.37 3.143 16.229 3.365l1.841.07.322-.277c.314-.269.324-.31.377-1.458l.054-1.182 3.567 2.895c1.962 1.592 3.577 2.934 3.59 2.984.012.049-1.593 1.392-3.567 2.986l-3.59 2.897-.059-1.112c-.031-.612-.098-1.2-.148-1.306-.17-.366-.625-.48-2.227-.556-8.26-.394-15.495-2.335-18.293-4.908-1.029-.946-1.07-1.094-1.07-3.84v-2.342l.892.599c.491.33 1.428.863 2.083 1.185z" fill="url(#paint0_linear_1710_5925)"/><g opacity=".4" filter="url(#filter0_dd_1710_5925)"><circle cx="76.045" cy="74.045" r="40.045" stroke="url(#paint1_linear_1710_5925)" stroke-width="2" shape-rendering="crispEdges"/></g><defs><linearGradient id="paint0_linear_1710_5925" x1="51.276" y1="54.938" x2="88.05" y2="103.745" gradientUnits="userSpaceOnUse"><stop stop-color="#0ABD92"/><stop offset="1" stop-color="#009DB8"/></linearGradient><linearGradient id="paint1_linear_1710_5925" x1="34.429" y1="74.046" x2="208.492" y2="74.046" gradientUnits="userSpaceOnUse"><stop stop-color="#009B8D"/><stop offset="1" stop-color="#009DB9"/></linearGradient><filter id="filter0_dd_1710_5925" x=".681" y=".969" width="159.309" height="165.6" filterUnits="userSpaceOnUse" color-interpolation-filters="sRGB"><feFlood flood-opacity="0" result="BackgroundImageFix"/><feColorMatrix in="SourceAlpha" values="0 0 0 0 0 0 0 0 0 0 0 0 0 0 0 0 0 0 127 0" result="hardAlpha"/><feOffset dx="8.58" dy="17.16"/><feGaussianBlur stdDeviation="17.16"/><feComposite in2="hardAlpha" operator="out"/><feColorMatrix values="0 0 0 0 0 0 0 0 0 0 0 0 0 0 0 0 0 0 0.19 0"/><feBlend in2="BackgroundImageFix" result="effect1_dropShadow_1710_5925"/><feColorMatrix in="SourceAlpha" values="0 0 0 0 0 0 0 0 0 0 0 0 0 0 0 0 0 0 127 0" result="hardAlpha"/><feOffset dy="2.288"/><feGaussianBlur stdDeviation="17.16"/><feComposite in2="hardAlpha" operator="out"/><feColorMatrix values="0 0 0 0 0 0 0 0 0 0.607843 0 0 0 0 0.552941 0 0 0 0.23 0"/><feBlend in2="effect1_dropShadow_1710_5925" result="effect2_dropShadow_1710_5925"/><feBlend in="SourceGraphic" in2="effect2_dropShadow_1710_5925" result="shape"/></filter></defs></svg>