<svg width="160" height="167" fill="none" xmlns="http://www.w3.org/2000/svg"><path fill-rule="evenodd" clip-rule="evenodd" d="M64.99 50.83c-2.301.408-4.422 1.788-5.741 3.738-.43.634-1.002 1.906-1.222 2.714-.174.638-.197.914-.192 2.228.006 1.368.027 1.567.237 2.27.127.424.4 1.118.608 1.542 1.603 3.271 5.17 5.252 8.735 4.851 3.144-.353 5.667-2.131 7.015-4.944.684-1.424.792-1.947.791-3.805-.001-1.476-.017-1.637-.232-2.34-.469-1.528-1.168-2.712-2.242-3.794a8.708 8.708 0 00-7.757-2.46zm3.554 1.61c5.028 1.47 6.937 7.528 3.664 11.628-.906 1.135-2.483 2.134-3.89 2.462-1.52.355-2.695.306-4.132-.172-1.181-.394-2.028-.939-2.94-1.894-1.43-1.495-2.074-3.234-1.977-5.334.057-1.225.198-1.792.707-2.848.994-2.061 2.81-3.48 5.094-3.98 1.03-.226 2.419-.171 3.474.138zm-2.33 1.244a.634.634 0 00-.279.246c-.06.113-.09 1.377-.09 3.736v3.565l.21.21c.272.273.649.274.963.004l.24-.207.026-3.428c.027-3.758.006-3.952-.456-4.127-.264-.1-.362-.1-.614 0zm13.853.794c-.297.228-.336.464-.334 2.048.001 1.686.044 1.897.434 2.116.268.15.609.079.848-.178.158-.17.174-.3.174-1.406v-1.22l1.293-.028c1.24-.027 1.3-.036 1.458-.23.249-.308.219-.813-.063-1.034-.211-.166-.333-.177-1.95-.175-1.22.002-1.764.034-1.86.107zm11.666.135c-.327.326-.344.705-.047 1.002.204.204.248.21 1.457.21h1.247v1.238c0 1.165.012 1.25.196 1.465.276.32.79.32 1.066 0 .19-.22.196-.28.196-1.932 0-1.677-.004-1.707-.207-1.944l-.207-.24-1.722-.028-1.722-.028-.257.257zm-8.187 2.83c-.408.187-.59.378-.768.803-.11.265-.132.822-.13 3.467.002 3.526.019 3.639.61 4.06.258.184.395.209 1.295.234l1.008.029v10.953h-4.11c-4.105 0-4.108 0-4.166-.181-.09-.283-.635-.841-1.02-1.043-.288-.151-.549-.191-1.503-.23l-1.155-.046-.364-1.346c-.2-.741-.46-1.537-.578-1.77-.484-.955-1.57-1.715-2.706-1.893-.724-.114-6.134-.114-6.858 0a3.773 3.773 0 00-2.654 1.819c-.14.244-.404 1.028-.617 1.83l-.372 1.403h-.992c-1.25 0-1.678.133-2.236.691-.483.482-.725 1.154-.64 1.773.066.482.442 1.181.755 1.404l.24.17-.297.389c-.527.69-.665 1.197-.71 2.61-.034 1.01-.014 1.335.098 1.674.175.527.57 1.011 1.004 1.233l.334.17v.585c0 .582-.005.596-1.418 3.479-.78 1.592-1.441 3.004-1.468 3.138-.12.603.292 1.34.89 1.59.412.173 41.642.173 42.055 0 .597-.25 1.01-.987.89-1.59-.027-.133-1.671-3.622-3.654-7.754l-3.605-7.512V66.107l.836-.002c1.148-.002 1.729-.285 1.987-.967.125-.33.126-6.556 0-6.887-.135-.358-.588-.788-.933-.884-.18-.05-2.006-.084-4.504-.083-3.893.002-4.226.013-4.544.159zm8.615 4.265v2.97l-2.971-.056a317.641 317.641 0 00-4.029-.057h-1.058v-2.856c0-1.571.026-2.882.058-2.913.03-.032 1.844-.058 4.029-.058h3.972v2.97zm-6.043-1.994c-.802.379-1.238 1.079-1.241 1.992-.007 1.936 2.408 2.889 3.739 1.474.756-.804.822-1.827.18-2.781-.567-.84-1.723-1.136-2.678-.685zm1.397 1.426c.392.365.317.918-.162 1.187-.442.248-1.02-.122-1.02-.653 0-.6.748-.938 1.182-.534zm-21.46 2.179c-.44.439-.138 1.246.466 1.246a.721.721 0 00.72-.736c-.018-.639-.746-.951-1.186-.51zm14.062 1.35c-.363.208-.38.3-.383 2.106-.003 2.333-.178 2.16 2.17 2.16 1.97 0 2.076-.03 2.168-.606.04-.247.007-.356-.166-.557l-.216-.251-1.244-.028-1.245-.027-.027-1.244c-.028-1.242-.028-1.244-.269-1.45-.26-.224-.518-.258-.788-.104zm14.471.188c-.24.207-.24.209-.27 1.457l-.03 1.25h-2.454l-.23.272c-.278.331-.245.696.09.992.212.186.278.192 1.933.192 2.308 0 2.135.18 2.135-2.217v-1.797l-.226-.178c-.3-.235-.653-.224-.948.03zm-5.427 6.691v5.44h-2.143v-10.88h2.143v5.44zm-33.149-3.983c-.43.173-.467.363-.438 2.227.026 1.698.03 1.731.228 1.892a.772.772 0 001.002-.046c.204-.205.21-.248.21-1.457v-1.246h1.247c1.21 0 1.253-.007 1.458-.21.31-.31.287-.738-.054-1.025-.263-.222-.264-.222-1.864-.216-.88.003-1.685.039-1.789.08zm17.374.159c-.325.324-.342.704-.045 1 .204.204.248.21 1.457.21h1.247v1.247c0 1.209.007 1.252.21 1.457a.733.733 0 001.037 0c.21-.21.21-.22.21-1.924 0-1.686-.003-1.716-.206-1.953l-.207-.24-1.724-.026-1.723-.027-.256.256zm-3.083 4.346c.424.196.882.612 1.063.965.09.179 1.508 5.226 1.508 5.373 0 .02-2.858.037-6.35.037-6.007 0-6.347-.008-6.303-.15.025-.082.298-1.094.608-2.249.835-3.115.784-2.97 1.179-3.397.403-.438.692-.609 1.207-.714.196-.04 1.785-.067 3.53-.06 3.018.015 3.19.024 3.558.195zm-11.436 5.626l-.192.707-.596.024c-.505.021-.626-.002-.787-.152-.253-.236-.318-.536-.178-.828.168-.35.455-.456 1.244-.457l.701-.001-.192.707zm16.928-.457c.28.281.311.498.12.867-.154.297-.347.358-1.022.323l-.502-.026-.156-.557c-.25-.894-.273-.857.574-.857.698 0 .748.012.986.25zm17.008 8.125c1.83 3.806 3.42 7.102 3.531 7.326l.202.407H76.833l-.03-1.25c-.029-1.248-.03-1.25-.27-1.456-.307-.265-.668-.265-.976 0-.24.206-.24.208-.27 1.456l-.03 1.25H55.57l.904-1.863c.498-1.025.917-1.878.933-1.896.015-.017.192.11.393.28.443.38 1.03.566 1.786.566.863 0 1.404-.195 1.89-.681.567-.567.682-.988.682-2.505v-1.184h8.744v1.184c0 1.517.114 1.938.681 2.505.487.486 1.028.681 1.89.681 1.104 0 1.91-.426 2.341-1.237.163-.306.191-.527.23-1.83l.044-1.481.339-.19c.408-.228.864-.803.986-1.24.118-.427.114-2.296-.007-2.865-.11-.522-.398-1.13-.71-1.499l-.215-.256.25-.184c.137-.102.352-.359.476-.57l.226-.386h12.041l3.329 6.918zM74.631 80.07c.456.221.738.448.993.8.138.19.25.377.25.417 0 .04-.612.073-1.359.073-.773 0-1.476.04-1.631.095-.37.129-.568.514-.445.866.163.47.247.49 1.999.493l1.607.002v.477c0 .587-.1.788-.475.944-.44.184-17.647.181-18.087-.003-.355-.148-.487-.436-.451-.984l.025-.39 1.658-.044c1.53-.04 1.666-.056 1.782-.214.185-.254.224-.492.123-.757-.152-.4-.514-.485-2.06-.485-.782 0-1.374-.034-1.374-.08 0-.043.127-.245.282-.45a2.55 2.55 0 011.295-.847c.146-.035 3.718-.058 7.938-.05 6.51.01 7.712.032 7.93.137zm-9.867 1.412c-.435.19-.533.816-.179 1.148.19.179.27.186 1.935.186.984 0 1.804-.037 1.895-.085.087-.047.202-.218.256-.38a.687.687 0 00-.437-.896c-.404-.141-3.133-.12-3.47.027zm-4.078 5.574c-.026 1.157-.041 1.253-.224 1.435-.17.17-.282.195-.876.195-.594 0-.706-.025-.876-.195-.182-.182-.197-.278-.223-1.435l-.028-1.24h2.254l-.028 1.24zm13.902-.046c0 1.13-.01 1.207-.201 1.429-.17.196-.287.24-.73.272-1.109.08-1.298-.179-1.298-1.778v-1.118h2.229v1.195z" fill="url(#paint0_linear_1710_5921)"/><g opacity=".4" filter="url(#filter0_dd_1710_5921)"><circle cx="76.045" cy="74.045" r="40.045" stroke="url(#paint1_linear_1710_5921)" stroke-width="2" shape-rendering="crispEdges"/></g><defs><linearGradient id="paint0_linear_1710_5921" x1="54.107" y1="50.691" x2="98.861" y2="95.664" gradientUnits="userSpaceOnUse"><stop stop-color="#0ABD92"/><stop offset="1" stop-color="#009DB8"/></linearGradient><linearGradient id="paint1_linear_1710_5921" x1="34.429" y1="74.046" x2="208.492" y2="74.046" gradientUnits="userSpaceOnUse"><stop stop-color="#009B8D"/><stop offset="1" stop-color="#009DB9"/></linearGradient><filter id="filter0_dd_1710_5921" x=".681" y=".969" width="159.309" height="165.6" filterUnits="userSpaceOnUse" color-interpolation-filters="sRGB"><feFlood flood-opacity="0" result="BackgroundImageFix"/><feColorMatrix in="SourceAlpha" values="0 0 0 0 0 0 0 0 0 0 0 0 0 0 0 0 0 0 127 0" result="hardAlpha"/><feOffset dx="8.58" dy="17.16"/><feGaussianBlur stdDeviation="17.16"/><feComposite in2="hardAlpha" operator="out"/><feColorMatrix values="0 0 0 0 0 0 0 0 0 0 0 0 0 0 0 0 0 0 0.19 0"/><feBlend in2="BackgroundImageFix" result="effect1_dropShadow_1710_5921"/><feColorMatrix in="SourceAlpha" values="0 0 0 0 0 0 0 0 0 0 0 0 0 0 0 0 0 0 127 0" result="hardAlpha"/><feOffset dy="2.288"/><feGaussianBlur stdDeviation="17.16"/><feComposite in2="hardAlpha" operator="out"/><feColorMatrix values="0 0 0 0 0 0 0 0 0 0.607843 0 0 0 0 0.552941 0 0 0 0.23 0"/><feBlend in2="effect1_dropShadow_1710_5921" result="effect2_dropShadow_1710_5921"/><feBlend in="SourceGraphic" in2="effect2_dropShadow_1710_5921" result="shape"/></filter></defs></svg>