<svg width="44" height="44" fill="none" xmlns="http://www.w3.org/2000/svg"><path opacity=".6" d="M14.813 8.548l-.322.383c-1.746-1.468-2.7-3.377-2.81-5.635a14.51 14.51 0 01-.016-.787c.001-.219.01-.445.034-.578 0 0 0 0 0 0l.492.092c.067-.36.401-.777.742-.927l1.88 7.452zm0 0l-.322.383c.961.808 2.211 1.353 3.728 1.66m-3.406-2.043l3.406 2.044m0 0v2.757l-.145.059.167.41-.167-.41c-1.77.719-3.117 2.275-3.604 4.147H9.698c-1.72 0-3.05.008-3.986.023a45.57 45.57 0 00-1.117.029 4.21 4.21 0 00-.593.05m14.217-7.065L4.002 39.468m0-21.812s0 0 0 0l.102.49-.102-.49zm0 0c-1.659.346-3.053 1.741-3.397 3.4m0 0a2.584 2.584 0 00-.032.336 23.27 23.27 0 00-.02.538c-.012.435-.022 1.021-.03 1.707A454.38 454.38 0 00.5 28.562c0 1.777.007 3.554.023 4.926.008.685.018 1.272.03 1.707.006.217.012.399.02.538.006.12.014.252.032.335.344 1.66 1.738 3.055 3.397 3.4M.605 21.056l.467.098-.467-.098s0 0 0 0zm3.397 18.412l.102-.49m-.102.49l25.964 3.336s0 0 0 0l-.027.038c-.07.1-.204.291-.444.413-.245.123-.573.17-1.03.2-.86.054-2.484.049-5.672.038l-.911-.003-6.922-.022h-.175l-.136-.109-.315-.252h0a1.596 1.596 0 01-.268-.26 1.845 1.845 0 01-.228-.39c-.132-.289-.29-.747-.554-1.53l-.46-1.358H8.862c-1.416 0-2.538-.008-3.343-.023a35.99 35.99 0 01-.972-.029 4.11 4.11 0 01-.544-.049l.102-.49m0 0c.284.06 1.927.091 4.757.091h4.323m-9.08-.09l9.08.09m26.711-.09l.102.49s0 0 0 0a4.109 4.109 0 01-.544.048c-.245.012-.57.022-.973.03-.804.015-1.926.022-3.343.022h-3.963l-.407 1.237-.475-.157-1.619-31.118m11.222 29.448c1.464-.305 2.706-1.548 3.01-3.012.126-.607.126-14.202 0-14.809-.304-1.465-1.546-2.708-3.01-3.012m0 20.833c-.284.06-1.927.09-4.758.09h-4.324l9.082-.09zm0-20.833l.102-.49m-.102.49l.102-.49s0 0 0 0m-.102.49l.102-.49m0 0a4.468 4.468 0 00-.593-.05 45.705 45.705 0 00-1.117-.028c-.936-.015-2.265-.023-3.986-.023H29.53c-.487-1.872-1.835-3.428-3.604-4.147l-.188.463.188-.463-.145-.059v-1.417c0-.228-.001-.42-.003-.587-.001-.212-.002-.38 0-.524a3.08 3.08 0 01.012-.248l.114-.02.036-.005.296-.05c.74-.142 1.692-.523 2.438-.967m0 0s0 0 0 0l-.255-.43.255.43zm0 0c.393-.234.87-.63 1.298-1.045.429-.416.845-.885 1.102-1.28a7.938 7.938 0 001.254-4.53l-.497.014.497-.015c-.014-.46-.038-.83-.158-1.135-.136-.344-.37-.551-.634-.749l-2.862 8.74zm-15.49 29.538l.574 1.698c.537 1.589.594 1.714.89 1.95l-1.463-3.648zm10.462-20.39h0zm0 0c2.044.344 3.827 1.279 5.393 2.842m-5.393-2.842l5.393 2.842m5.128 3.292l.36-.315c.07.08.118.121.161.148a.623.623 0 00.21.074c.24.05.627.06 1.378.045.582-.012.88-.024 1.056-.047a.577.577 0 00.127-.026h0a.128.128 0 00.04-.024l-3.332.145zm0 0l.36-.315a.795.795 0 01-.027-1.04.96.96 0 01.172-.173.439.439 0 01.167-.066c.216-.048.578-.057 1.358-.046.628.01.945.019 1.132.04a.6.6 0 01.132.026h0c.005.002.012.004.038.024m-3.332 1.55l3.332-1.55m-8.46-1.742c2.047 2.042 3.072 4.675 2.93 7.509m-2.93-7.51l2.93 7.51m0 0c-.13 2.581-1.088 4.733-2.93 6.577m2.93-6.577l-2.93 6.577m0 0c-1.455 1.456-3.08 2.342-5.094 2.776m5.094-2.776l-5.094 2.776m0 0c-.434.094-1.174.147-1.944.147m1.944-.147L22 38.53m0 0c-.771 0-1.51-.053-1.945-.147M22 38.53l-1.945-.147m0 0c-2.013-.434-3.64-1.32-5.094-2.776m5.094 2.776l-5.094-2.776m0 0c-1.818-1.82-2.787-3.973-2.93-6.498m2.93 6.498l-2.93-6.498m0 0c-.29-5.149 3.285-9.56 8.493-10.44l-8.493 10.44zm25.467-5.846c.186.139.26.23.297.305m-.297-.305l.297.305m0 0c.038.072.066.179.066.397m-.066-.397l.066.397m0 0c0 .219-.028.326-.066.398m.066-.398l-.066.398m0 0c-.038.075-.111.166-.297.305l.297-.305zM7.467 33.718c.413-.414.27-1.089-.232-1.299-.482-.201-1.03.11-1.112.547l1.344.752zm0 0c-.55.55-1.502.093-1.344-.752l1.344.752zm8.953-10.666c-1.057 1.069-1.737 2.283-2.105 3.757m15.368 0c.195.78.195 2.726 0 3.506-.532 2.001-2.884 5.982-8.052 6.087m-1.087-16.09h0c-1.755.318-3.195 1.088-4.48 2.388a8.392 8.392 0 00-2.234 3.988c-.113.453-.16 1.185-.16 1.874 0 .69.047 1.422.16 1.875.39 1.56 1.114 2.854 2.234 3.987 1.495 1.513 3.249 2.33 5.34 2.48l.201.011v-.012c5.496-.093 7.995-4.327 8.562-6.46h0l.002-.007c.113-.452.16-1.185.16-1.874 0-.689-.047-1.422-.16-1.874a9.58 9.58 0 00-1.081-2.575l-.41.253.41-.253c-.286-.463-.739-.993-1.22-1.47-.482-.476-1.021-.927-1.496-1.219-1.713-1.05-3.88-1.466-5.828-1.113zm8.655 9.878c-.506 1.897-2.765 5.696-7.742 5.714-1.836-.135-3.358-.843-4.682-2.183l-.35.346.35-.346c-.992-1.004-1.628-2.138-1.974-3.526-.082-.328-.132-.958-.132-1.633 0-.674.05-1.304.132-1.632.346-1.388.982-2.523 1.974-3.527h0c1.145-1.158 2.4-1.826 3.948-2.107 1.7-.31 3.619.056 5.125.98.388.238.867.633 1.317 1.079.45.445.843.913 1.072 1.284a8.55 8.55 0 01.961 2.29h0c.082.329.131.959.132 1.633 0 .672-.05 1.3-.13 1.628zM13.03.57a1.056 1.056 0 00-.298.068l18.803.153h0a.87.87 0 00-.207-.119A1.265 1.265 0 0031.027.6c-.209-.029-.542-.045-1.113-.057-1.155-.024-3.39-.028-7.817-.037a716.098 716.098 0 00-7.243.006c-.678.007-1.142.017-1.45.032a5.891 5.891 0 00-.374.026zM7.467 29.121c-.55.55-1.502.092-1.344-.752h0c.082-.437.63-.75 1.112-.548.502.21.645.886.232 1.3zm13.428-4.853c-2.334.628-3.792 3.048-3.19 5.36l8.176-.54.495.07s0 0 0 0c.442-3.067-2.492-5.694-5.481-4.89z" stroke="#fff"/></svg>