<svg width="34" height="34" fill="none" xmlns="http://www.w3.org/2000/svg"><path d="M24.054 11.619a.609.609 0 00.033-.133c.05.37.095.745.135 1.126l-.144-.11-.632-.483a22.21 22.21 0 00-.345-.26c.063.038.122.072.17.098.03.015.076.038.125.055a.512.512 0 00.36.002.504.504 0 00.298-.295zm0 0l-.468-.176m.468.176s0 0 0 0l-.468-.176m0 0c-.003.008-.037-.005-.096-.037 0 0 0 0 0 0a5.451 5.451 0 01-.34-.208m.436.245c.018-.047 0-.229-.04-.496a.473.473 0 01.067 0 .416.416 0 01.117.023l.018.007-.012-.006a3.023 3.023 0 01-.207-.123c-.153-.936-.55-2.722-.842-3.687-.572-1.897-1.434-3.83-2.242-5.023-.382-.566-.516-.795-.715-.904-.164-.09-.373-.1-.805-.151-.746-.09-2.878-.125-3.439-.058-3.544.421-6.404 1.645-8.955 3.833l-.037.032a33.982 33.982 0 00-.085-.004s0 0 0 0l-.457-.016-.018.5.326.38.121-.105h0l.29-.248c4.417.193 8.223 1.182 12.071 3.133a30.753 30.753 0 013.889 2.316c.157.11.306.212.438.3a3.881 3.881 0 01.024.23v.002l.057-.18m0 0a.498.498 0 00-.032.068l.032-.068zm1.168 9.042a.503.503 0 00.607.232c-.238.192-.479.38-.722.565l.014-.192.053-.731a.497.497 0 00.048.126zm0 0l.438-.242m-.438.242l.001.001.437-.243m0 0a9.32 9.32 0 01.03-.498m-.03.498c.004.007.029-.008.072-.04h.001c.068-.05.18-.143.322-.266.015.02.03.041.043.065.036.065.048.124.051.137v.001a.552.552 0 01.01.083v.012l.002-.03.008-.146.017-.236a49.07 49.07 0 001.748-1.628m-2.244 1.55l2.586-1.202-.342-.348m-2.244 1.55a.486.486 0 00-.145.014c-.058.015-.098.037-.104.04h0c-.019.01-.024.016-.008.004a3.87 3.87 0 00.145-.116l.124-.106.005-.055m-.017.22l-.456-.257.473.037m2.227-1.33l.342.347-5.203-16.473c3.93 1.344 7.25 4.233 9.11 7.927.245.488.52 1.073.61 1.3l.163.415-.17.323c-.25.475-1.457 2.276-1.959 2.924a32.393 32.393 0 01-2.893 3.236zm-2.227 1.33c.084-1.078.08-4.878-.007-5.902l-.47.067c.09 1.029.088 4.252.004 5.798l.473.037zm-6.76 5.79c-.005.203.11.33.133.354h0a.53.53 0 00.107.09 34.577 34.577 0 01-1.077-.399l.15-.063.356-.15c.186-.08.392-.173.613-.278a1.182 1.182 0 00-.097.069.541.541 0 00-.122.147.502.502 0 00-.063.23zm0 0l.5.013-.5-.012s0 0 0 0zM9.04 14.421l.031 1.4-.03-1.4zm0 0l.318-.283-.332-.373-.5.01.01.426-.072.064c-2.762 2.458-5.072 5.553-6.171 8.27m6.747-8.114L4.39 27.686a16.166 16.166 0 01-2.496-3.966l-.238-.54-.085-.194.033-.083m.689-.369l-.464-.187c.097-.238.201-.478.315-.72m.149.907l-.464-.187-.179.443-.046.113m.689-.369l-.18.444.239.54-.414.182a17.626 17.626 0 01-.334-.797m.54-1.275l.362-.7h0c.215-.416.446-.826.692-1.233m-1.054 1.933c.109-.234.226-.47.35-.706a20.4 20.4 0 01.704-1.227m-1.054 1.933l-.082.157-.51.984m1.646-3.074c1.078-1.738 2.504-3.49 4.115-5.045-1.652 1.572-3.034 3.265-4.115 5.045zM1.552 22.77a16.69 16.69 0 01-.456-1.374s0 0 0 0a15.365 15.365 0 01-.151-.574s0 0 0 0a14.44 14.44 0 01-.066-.283l-.035.008c.022.099.045.193.068.284h0l.15.574h0l.071.276.328 1.264.09-.175zm0 0l.051.134m13.79-14.22l-.007-.004a2.631 2.631 0 00-.225-.094c-.177.097-.387.21-.609.327l.775-.99a.65.65 0 00.06-.036l.006-.003a.378.378 0 00-.012.009c-.004.003-.022.016-.043.036l.306.323c.033.018.046.032.038.04-.017.016-.183.11-.43.245.045.073.096.114.105.122h.001a.32.32 0 00.035.025zm0 0a.042.042 0 000 0zM4.56 6.149c.094-.108.189-.214.285-.318l1.071.038.457.017h0c.235.008.468.019.7.032-.774-.028-1.6-.021-2.005.026h0a.98.98 0 00-.508.205zm7.797.532a27.03 27.03 0 012.87.864 35.174 35.174 0 00-2.87-.864l-.12.486.12-.486zm3.48 1.105a3.153 3.153 0 00-.25-.108c.49.186.98.387 1.468.604a.51.51 0 00-.072-.002h-.001a.516.516 0 00-.125.021h0a.59.59 0 00-.08.03l-.085.038-.256.123c-.178.086-.408.2-.659.325a15.809 15.809 0 00.133-.078 1.07 1.07 0 00.039-.025h0a.587.587 0 00.077-.06h0a.506.506 0 00.105-.595.54.54 0 00-.146-.18h0a.843.843 0 00-.149-.093zm5.679-4.827c.548.99 1.028 2.121 1.432 3.374a22.703 22.703 0 00-1.432-3.374zm-.644-1.084a6.799 6.799 0 00-.012-.017l-.412.278.412-.278a60.199 60.199 0 01-.136-.202 13.676 13.676 0 00-.273-.397 1.66 1.66 0 00-.385-.405 1.082 1.082 0 00-.2-.109c.23.039.454.082.67.13l.108-.488-.108.488c.231.051.462.108.694.171a.522.522 0 00-.444.474.57.57 0 00.025.212.813.813 0 00.06.143zm-2.025 23.603s0 0 0 0h0zM32.1 12.47a.937.937 0 00-.112.114 9.64 9.64 0 00.336-.561s0 0 0 0l.17-.323.074-.14c.12.34.228.686.325 1.034a.57.57 0 00-.067-.091h0a.51.51 0 00-.559-.132.578.578 0 00-.167.1zm-21.966 8.856l.74.491a.652.652 0 00-.089-.032.508.508 0 00-.635.422 44.23 44.23 0 01-.153-.972l.137.091zm3.05 10.914a2.597 2.597 0 00-.043-.13c.042.085.082.169.123.249l.372-.187-.372.187c.082.163.166.32.237.441.035.06.07.118.102.165.016.023.035.05.056.076l.001.002c.012.014.063.077.14.126h0a.685.685 0 00.035.021c-.351-.07-.7-.15-1.045-.241a.504.504 0 00.422-.42.524.524 0 00.001-.163h0a.896.896 0 00-.029-.126zm3.813 1.26c-.365 0-.73-.012-1.092-.037a31.089 31.089 0 002.027.01 16.02 16.02 0 01-.935.027zm12.564-5.815c-.24.285-.489.56-.747.828a.74.74 0 00.066-.095.537.537 0 00.066-.25.503.503 0 00-.387-.492 1.008 1.008 0 00-.078-.018c.238.017.433.027.558.027h.521zM9.537 14.31l-.013-.556-.022-.993.15-.117-.017.165-.045.428c-.028.273-.046.642-.053 1.073zm23.962 2.829a16.192 16.192 0 010 0z" fill="#fff" stroke="url(#paint0_linear_1710_4690)"/><defs><linearGradient id="paint0_linear_1710_4690" x1="0" y1="0" x2="34.68" y2="34.85" gradientUnits="userSpaceOnUse"><stop stop-color="#0ABD92"/><stop offset="1" stop-color="#009DB8"/></linearGradient></defs></svg>